# xmcd
#
# Track frame offsets: 
#        150
#        36492
#        66285
#        80517
#        115611
#        145302
#        184410
#        211320
#        236119
#        266435
#        313856
#
# Disc length: 4567 seconds
#
# Revision: 0
# Processed by: cddbd v1.5.2PL0 Copyright (c) Steve Scherf et al.
# Submitted via: ExactAudioCopy v1.0b3
#
DISCID=a611d50b
DTITLE=Syntech - Best Of Vol. 1
DYEAR=2004
DGENRE=Electronic
TTITLE0=Second Thoughts
TTITLE1=Reaction
TTITLE2=Super Nova
TTITLE3=Foreign
TTITLE4=Soundly Computed
TTITLE5=We Won't Be Long
TTITLE6=F=M x G
TTITLE7=Free B
TTITLE8=Consequences
TTITLE9=Fair
TTITLE10=Final Notes
EXTD=
EXTT0=
EXTT1=
EXTT2=
EXTT3=
EXTT4=
EXTT5=
EXTT6=
EXTT7=
EXTT8=
EXTT9=
EXTT10=
PLAYORDER=
